<svg viewBox="0 0 100 100" xmlns="http://www.w3.org/2000/svg"><g id="0" style="fill:#fff;fill-rule:evenodd"><path d="m66.31 64.33c2.844 0 5.134 2.295 5.134 5.137 0 2.837-2.29 5.137-5.134 5.137-2.846 0-5.145-2.301-5.145-5.137 0-2.842 2.299-5.137 5.145-5.137" id="1"/><path d="m45.742 74.61c2.838 0 5.14 2.3 5.14 5.137 0 2.837-2.302 5.143-5.14 5.143-2.844 0-5.14-2.306-5.14-5.143 0-2.837 2.296-5.137 5.14-5.137" id="2"/><path d="m35.463 54.06c2.844 0 5.14 2.295 5.14 5.137 0 2.834-2.296 5.137-5.14 5.137-2.846 0-5.14-2.303-5.14-5.137 0-2.842 2.293-5.137 5.14-5.137" id="3"/><path d="m99.72 95.83l-27.912-59.19v-30.798h5.159c1.612 0 2.915-1.308 2.915-2.922 0-1.614-1.304-2.922-2.915-2.922h-8.07c-.177 0-.327.07-.495.1-.168-.03-.319-.1-.495-.1h-44.744c-1.611 0-2.915 1.308-2.915 2.922 0 1.613 1.304 2.922 2.915 2.922h5.156v30.798l-28.03 59.18c-.43.905-.364 1.966.168 2.813.535.847 1.466 1.361 2.465 1.361h94.17c.999 0 1.927-.514 2.463-1.358.535-.844.601-1.906.174-2.813m-33.743-60.848h-31.833v-29.14h31.833v29.14m-58.45 59.18l25.26-53.33h34.543l25.15 53.33h-84.953" id="4"/></g></svg>