<svg viewBox="0 0 100 100" xmlns="http://www.w3.org/2000/svg"><g id="0" style="fill:none;fill-rule:evenodd"><rect width="100" height="100" rx="2" style="stroke:#fff;stroke-width:2"/><g style="fill:#fff"><rect x="7" y="11" width="7" height="4" rx="2.304" ry="2"/><g transform="translate(26 9)"><rect x="1" y="1" width="33" height="4" rx="2.304" ry="2"/><rect x="25" y="33" width="33" height="4" rx="2.304" ry="2"/><rect x="10" y="44" width="33" height="4" rx="2.304" ry="2"/><rect x="1" y="33" width="21" height="4" rx="2.304" ry="2"/><rect x="44" y="54" width="6" height="4" rx="2.304" ry="2"/><rect x="1" y="12" width="27" height="4" rx="2.304" ry="2"/><rect x="14" y="54" width="27" height="4" rx="2.304" ry="2"/><rect x="10" y="23" width="27" height="4" rx="2.304" ry="2"/><rect x="27" y="65" width="27" height="4" rx="2.304" ry="2"/><rect x="1" y="75" width="46" height="4" rx="2.304" ry="2"/><rect x="1" y="65" width="10" height="4" rx="2.304" ry="2"/><rect x="14" y="65" width="10" height="4" rx="2.304" ry="2"/><rect x="44" y="12" width="21" height="4" rx="2.304" ry="2"/><rect x="31" y="12" width="10" height="4" rx="2.304" ry="2"/><rect x="40" y="23" width="10" height="4" rx="2.304" ry="2"/><rect x="1" y="54" width="10" height="4" rx="2.304" ry="2"/><rect x="53" y="23" width="10" height="4" rx="2.304" ry="2"/><rect x="1" y="23" width="6" height="4" rx="2.304" ry="2"/><rect x="1" y="44" width="6" height="4" rx="2.304" ry="2"/><rect x="37" y="1" width="21" height="4" rx="2.304" ry="2"/></g><rect x="7" y="20" width="7" height="4" rx="2.304" ry="2"/><rect x="7" y="31" width="7" height="4" rx="2.304" ry="2"/><rect x="7" y="43" width="7" height="4" rx="2.304" ry="2"/><rect x="7" y="54" width="7" height="4" rx="2.304" ry="2"/><rect x="7" y="63" width="7" height="4" rx="2.304" ry="2"/><rect x="7" y="74" width="7" height="4" rx="2.304" ry="2"/><rect x="7" y="85" width="7" height="4" rx="2.304" ry="2"/></g><path d="m20 1v100" id="1" style="stroke:#fff;stroke-linecap:square;stroke-width:2"/></g></svg>