<svg xmlns="http://www.w3.org/2000/svg" viewBox="0 0 16 16"><path fill="#444" d="m5.683 11.282l.645-.903-.707-.707-.903.645c-.168-.094-.347-.168-.535-.222l-.183-1.095h-1l-.183 1.095c-.188.053-.368.128-.535.222l-.903-.645-.707.707.645.903c-.094.168-.168.347-.222.535l-1.095.183v1l1.095.183c.053.188.128.368.222.535l-.645.903.707.707.903-.645c.168.094.347.168.535.222l.183 1.095h1l.183-1.095c.188-.053.368-.128.535-.222l.903.645.707-.707-.645-.903c.094-.168.168-.347.222-.535l1.095-.182v-1l-1.095-.183c-.053-.188-.128-.368-.222-.535m-2.183 2.217c-.552 0-1-.448-1-1s.448-1 1-1 1 .448 1 1-.448 1-1 1m12.5-7.5v-1l-1.053-.191c-.019-.126-.044-.25-.074-.372l.899-.58-.383-.924-1.046.226c-.066-.108-.136-.213-.211-.315l.609-.88-.707-.707-.88.609c-.102-.074-.207-.145-.315-.211l.226-1.046-.924-.383-.58.899c-.122-.03-.246-.054-.372-.074l-.191-1.053h-1l-.191 1.053c-.126.019-.25.044-.372.074l-.58-.899-.924.383.226 1.046c-.108.066-.213.136-.315.211l-.88-.609-.707.707.609.88c-.074.102-.145.207-.211.315l-1.046-.226-.383.924.899.58c-.03.122-.054.246-.074.372l-1.053.191v1l1.053.191c.019.126.044.25.074.372l-.899.58.383.924 1.046-.226c.066.108.136.213.211.315l-.609.88.707.707.88-.609c.102.074.207.145.315.211l-.226 1.046.924.383.58-.899c.122.03.246.054.372.074l.191 1.053h1l.191-1.053c.126-.019.25-.044.372-.074l.58.899.924-.383-.226-1.046c.108-.066.213-.136.315-.211l.88.609.707-.707-.609-.88c.074-.102.145-.207.211-.315l1.046.226.383-.924-.899-.58c.03-.122.054-.246.074-.372l1.053-.191m-5.5 1.675c-1.201 0-2.175-.974-2.175-2.175s.974-2.175 2.175-2.175 2.175.974 2.175 2.175c0 1.201-.974 2.175-2.175 2.175"/></svg>