<svg viewBox="0 0 100 100" xmlns="http://www.w3.org/2000/svg"><g id="0" transform="translate(13)" style="fill:none;fill-rule:evenodd"><path d="m37.5 0c-14.439 12.206-28.08 28.29-34.516 46.21-3.978 11.08-4.372 23.1 1.234 33.731 6.446 12.219 19.444 20.06 33.28 20.06 13.838 0 26.836-7.844 33.28-20.06 5.607-10.631 5.212-22.65 1.234-33.731-6.433-17.912-20.08-34-34.516-46.21" id="1" style="stroke:#fff;stroke-width:2"/><path d="m58.694 74.12c-4.285 8.131-12.998 13.381-22.19 13.381-5.394 0-10.624-1.813-14.89-4.944 1.297.169 2.606.256 3.928.256 11.495 0 22.382-6.563 27.738-16.725 4.391-8.331 4.01-16.975 2.337-23.863 1.422 2.75 2.631 5.487 3.608 8.194 2.211 6.156 3.915 15.269-.526 23.694" id="2" style="fill:#fff"/></g></svg>