<?xml version="1.0" encoding="UTF-8" standalone="no"?>
<svg width="100px" height="100px" viewBox="0 0 100 100" version="1.1" xmlns="http://www.w3.org/2000/svg" xmlns:xlink="http://www.w3.org/1999/xlink" xmlns:sketch="http://www.bohemiancoding.com/sketch/ns">
    <!-- Generator: Sketch 3.5.2 (25235) - http://www.bohemiancoding.com/sketch -->
    <title>design</title>
    <desc>Created with Sketch.</desc>
    <defs></defs>
    <g id="Welcome" stroke="none" stroke-width="1" fill="none" fill-rule="evenodd" sketch:type="MSPage">
        <g id="design" sketch:type="MSArtboardGroup">
            <g id="droplet" sketch:type="MSLayerGroup" transform="translate(13.000000, 1.000000)">
                <path d="M36.5,0 C22.4459539,11.88075 9.17234932,27.53925 2.90442766,44.9740833 C-0.967294384,55.75375 -1.35141799,67.4580833 4.10557607,77.8058333 C10.3795949,89.69875 23.0312851,97.3333333 36.5,97.3333333 C49.9687149,97.3333333 62.6204051,89.69875 68.8944239,77.8058333 C74.351418,67.4580833 73.9672944,55.7598333 70.0955723,44.9740833 C63.8337479,27.53925 50.5540461,11.88075 36.5,0 Z" id="Shape" stroke="#FFFFFF" stroke-width="2" sketch:type="MSShapeGroup"></path>
                <path d="M57.1290465,72.14225 C52.9585616,80.0566667 44.4773564,85.1666667 35.5266667,85.1666667 C30.2769774,85.1666667 25.1858154,83.4025 21.0336221,80.35475 C22.2957425,80.519 23.5700573,80.6041667 24.8565666,80.6041667 C36.0449287,80.6041667 46.6418624,74.2166667 51.8549684,64.3251667 C56.1291057,56.2160833 55.7571765,47.8028333 54.1292241,41.099 C55.5132885,43.7756667 56.6900481,46.4401667 57.6412113,49.07425 C59.7935229,55.0663333 61.4519613,63.9358333 57.1290465,72.1361667" id="Path" fill="#FFFFFF" sketch:type="MSShapeGroup"></path>
            </g>
        </g>
    </g>
</svg>