<svg xmlns="http://www.w3.org/2000/svg" viewBox="0 0 16 16"><path fill="#444" d="m13.51 7.393c-1.027-2.866-3.205-5.44-5.51-7.393-2.305 1.953-4.482 4.527-5.51 7.393-.635 1.772-.698 3.696.197 5.397 1.029 1.955 3.104 3.21 5.313 3.21s4.284-1.255 5.313-3.21c.895-1.701.832-3.624.197-5.397m-1.967 4.466c-.684 1.301-2.075 2.141-3.543 2.141-.861 0-1.696-.29-2.377-.791.207.027.416.041.627.041 1.835 0 3.573-1.05 4.428-2.676.701-1.333.64-2.716.373-3.818.227.44.42.878.576 1.311.353.985.625 2.443-.084 3.791"/></svg>