<svg xmlns="http://www.w3.org/2000/svg" viewBox="0 0 16 16"><path fill="#444" d="m7 2v-.25c0-.413-.338-.75-.75-.75h-2.5c-.413 0-.75.337-.75.75v.25h-3v2h3v.25c0 .412.337.75.75.75h2.5c.412 0 .75-.338.75-.75v-.25h9v-2h-9m-3 2v-2h2v2h-2m9 2.75c0-.412-.338-.75-.75-.75h-2.5c-.412 0-.75.338-.75.75v.25h-9v2h9v.25c0 .412.338.75.75.75h2.5c.412 0 .75-.338.75-.75v-.25h3v-2h-3v-.25m-3 2.25v-2h2v2h-2m-3 2.75c0-.412-.338-.75-.75-.75h-2.5c-.413 0-.75.338-.75.75v.25h-3v2h3v.25c0 .412.337.75.75.75h2.5c.412 0 .75-.338.75-.75v-.25h9v-2h-9v-.25m-3 2.25v-2h2v2h-2"/></svg>