<svg viewBox="0 0 100 100" xmlns="http://www.w3.org/2000/svg"><g id="0" style="fill:none;fill-rule:evenodd"><path d="m37.802 8.911l-9.761-1.872 1.047 2.999c-16.914 7.149-28.794 23.693-28.794 42.927 0 6.26 1.281 12.226 3.562 17.688-1.55 1.329-2.537 3.28-2.537 5.458 0 3.992 3.301 7.241 7.356 7.241 4.055 0 7.356-3.249 7.356-7.241 0-3.992-3.301-7.241-7.356-7.241-.647 0-1.272.091-1.87.246-2.044-4.997-3.187-10.441-3.187-16.15 0-17.802 10.945-33.12 26.555-39.821l1.1 3.151 6.529-7.384m-25.09 67.2c0 2.189-1.808 3.969-4.03 3.969-2.224 0-4.03-1.781-4.03-3.969 0-2.189 1.808-3.969 4.03-3.969 2.224 0 4.03 1.781 4.03 3.969m81.982-16.392c.331-2.206.524-4.457.524-6.752 0-23.322-17.464-42.69-40.19-46.14-.53-3.485-3.581-6.169-7.266-6.169-4.057 0-7.356 3.249-7.356 7.241 0 3.992 3.301 7.241 7.356 7.241 3.28 0 6.06-2.124 7.01-5.05 21.02 3.315 37.13 21.277 37.13 42.881 0 2.045-.165 4.049-.448 6.02l-3.153-.713 2.916 9.357 6.777-7.162-3.292-.749m-46.936-47.857c-2.224 0-4.03-1.781-4.03-3.969 0-2.189 1.808-3.969 4.03-3.969 2.224 0 4.03 1.781 4.03 3.969 0 2.189-1.808 3.969-4.03 3.969m39.08 57.01c-4.057 0-7.357 3.249-7.357 7.241 0 1.885.742 3.601 1.948 4.89-8.102 9.411-20.19 15.402-33.671 15.402-9.778 0-18.814-3.158-26.14-8.475l2.175-2.436-9.752-1.919 3.189 9.271 2.189-2.452c7.914 5.821 17.717 9.284 28.336 9.284 14.622 0 27.702-6.557 36.414-16.823.828.318 1.725.499 2.665.499 4.055 0 7.356-3.249 7.356-7.241 0-3.992-3.3-7.241-7.355-7.241m0 11.21c-2.224 0-4.03-1.781-4.03-3.969 0-2.189 1.809-3.969 4.03-3.969 2.224 0 4.03 1.781 4.03 3.969 0 2.189-1.809 3.969-4.03 3.969" id="1" transform="translate(1)" style="fill:#fff"/></g></svg>