<svg viewBox="0 0 283 56" xmlns="http://www.w3.org/2000/svg">
    <g style="fill:none;fill-rule:evenodd"><path
        d="m10.871 0h-10.871v53.974h11.783v-28.735l-.836-5.093h.304l1.977 5.02 10.567 17.256h8.06l10.567-17.256 1.977-5.02h.304l-.836 5.093v28.735h11.783v-53.974h-10.871l-15.888 25.923-.912 2.889h-.304l-.912-2.889-15.888-25.923m75.11 0l-17.408 51.769 11.1 3.725 3.725-12.09h17.1l4.105 12.09 11.1-3.725-17.408-51.769h-12.315m11.555 33.14h-10.795l4.257-12.619.988-5.625h.304l.988 5.625 4.257 12.619m27.747-13.227l3.193 6.01 24.25 10.491.988 2.053v1.9l-2.585 2.585h-13.151l-9.578-3.269-3.573 10.567 10.947 3.725h20.07l9.654-9.654v-10.263l-3.193-6.01-24.25-10.491-.988-2.053v-1.9l2.585-2.585h13.08l9.578 3.269 3.573-10.567-10.947-3.725h-19.993l-9.654 9.654v10.263m65.6-19.917l-10.567 9.578v34.817l10.567 9.578h22.578l10.567-9.578v-34.817l-10.567-9.578h-22.578m21.361 14.216v25.543l-3.497 3.193h-13.151l-3.497-3.193v-25.543l3.497-3.193h13.151l3.497 3.193m40.29 11.479l-.836-5.093h.304l1.977 5.02 17.713 28.355h10.567v-53.974h-11.783v28.28l.836 5.093h-.304l-1.977-5.02-17.713-28.355h-10.567v53.974h11.783v-28.28"
        id="0"
        style="fill:#fff"/></g>
</svg>
