<svg viewBox="0 0 590 216" xmlns="http://www.w3.org/2000/svg" xmlns:xlink="http://www.w3.org/1999/xlink" preserveAspectRatio="xMinYMid slice"><defs><use id="1" xlink:href="#5"/><use id="2" xlink:href="#5"/><path id="5" d="m55 110c30.376 0 55-24.624 55-55 0-30.376-24.624-55-55-55-30.376 0-55 24.624-55 55 0 30.376 24.624 55 55 55"/><path id="6" d="m93.73 15.95c-9.94-9.86-23.625-15.95-38.731-15.95-30.376 0-55 24.624-55 55 0 15.11 6.091 28.791 15.95 38.731l77.78-77.78" style="fill:#fff;fill-opacity:.1"/><mask id="3" style="fill:#fff"><use xlink:href="#1"/></mask><mask id="4" style="fill:#fff"><use xlink:href="#2"/></mask></defs><g id="0" transform="translate(0-4)" style="fill:none;fill-rule:evenodd"><g id="7" transform="translate(0 110)"><g id="C"><use xlink:href="#5" style="fill:#8f45e1"/><use xlink:href="#6"/></g><g id="D" transform="translate(22.55 19.8)" style="fill:#fff"><path d="m42.988 44.42c1.896 0 3.423 1.53 3.423 3.425 0 1.891-1.527 3.425-3.423 3.425-1.898 0-3.43-1.534-3.43-3.425 0-1.895 1.533-3.425 3.43-3.425" id="P"/><path d="m29.28 51.27c1.892 0 3.426 1.534 3.426 3.425 0 1.891-1.534 3.429-3.426 3.429-1.896 0-3.427-1.537-3.427-3.429 0-1.891 1.531-3.425 3.427-3.425" id="Q"/><path d="m22.425 37.571c1.896 0 3.426 1.53 3.426 3.425 0 1.889-1.531 3.425-3.426 3.425-1.898 0-3.427-1.536-3.427-3.425 0-1.895 1.529-3.425 3.427-3.425" id="R"/><path d="m65.815 63.46l-18.422-39.06v-20.327h3.405c1.064 0 1.924-.863 1.924-1.928 0-1.065-.861-1.928-1.924-1.928h-5.329c-.117 0-.216.046-.327.066-.111-.02-.211-.066-.327-.066h-29.531c-1.064 0-1.924.863-1.924 1.928 0 1.065.861 1.928 1.924 1.928h3.403v20.327l-18.501 39.06c-.284.597-.241 1.298.111 1.857.353.559.968.898 1.627.898h62.15c.659 0 1.272-.339 1.625-.896.353-.557.396-1.258.115-1.857m-22.27-40.16h-21.01v-19.231h21.01v19.231m-38.577 39.06l16.671-35.2h22.798l16.599 35.2h-56.07" id="S"/></g></g><g id="8" transform="translate(320 69)"><use id="E" xlink:href="#1" style="fill:#8f45e1"/><g id="F" style="mask:url(#3)"><use xlink:href="#5" style="fill:#8f45e1"/><use xlink:href="#6"/></g><g style="mask:url(#3)"><g transform="translate(27.5 27.5)"><rect width="99" height="99" rx="4.4" style="stroke:#fff;stroke-width:3.85"/><g style="fill:#fff"><rect x="9.35" y="9.35" width="27.5" height="12.1" rx="4.4"/><rect x="42.35" y="12.1" width="13.75" height="6.05" rx="4.4" ry="3.02"/><rect x="58.85" y="12.1" width="13.75" height="6.05" rx="4.4" ry="3.02"/></g><g id="T" transform="translate(9.35 28.05)"><rect width="93.5" height="26.4" rx="4.4" style="fill:#fff"/><g style="stroke:#8f45e1;stroke-linecap:square;stroke-width:3.85"><path d="m12.925 7.425h37.966" id="c"/><path d="m12.925 12.925h26.966" id="d"/><path d="m12.925 18.975h31.916" id="e"/></g></g><rect x="9.35" y="61.05" width="93.5" height="26.4" rx="4.4" style="fill:#fff"/><g style="stroke:#8f45e1;stroke-linecap:square;stroke-width:3.85"><path d="m22.275 68.47h37.966" id="V"/><path d="m22.275 73.975h26.966" id="W"/><path d="m22.275 80.03h31.916" id="X"/></g></g></g></g><g id="9" transform="translate(480 27)"><use id="G" xlink:href="#2" style="fill:#8f45e1"/><g id="H" style="mask:url(#4)"><use xlink:href="#5" style="fill:#8f45e1"/><use xlink:href="#6"/></g><g style="mask:url(#4)"><g transform="translate(23.1 23.1)"><circle cx="31.9" cy="31.9" r="6.6" style="fill:#fff"/><circle cx="31.9" cy="31.9" r="31.9" style="stroke:#fff;stroke-width:3.85"/></g></g></g><g id="A" transform="translate(160 110)"><g id="I"><circle cx="55" cy="55" r="55" style="fill:#8f45e1"/><use xlink:href="#6"/></g><g transform="translate(10.45 10.45)"><g style="stroke:#fff"><ellipse id="U" cx="44.503" cy="44.498" rx="44.503" ry="44.498" style="stroke-width:3.3"/><g style="stroke-linecap:round;stroke-width:3.85"><path d="m29.7 29.966l14.702 16.592 25.816-19.609"/><path d="m45.1.55v11" id="Y"/><path d="m45.1 77.55v11" id="Z"/><path d="m.275 43.725h11" id="a"/><path d="m77.83 43.725h11" id="b"/></g></g><circle cx="44.55" cy="44.55" r="6.05" style="fill:#fff"/></g></g><g style="stroke-dasharray:5 5 1;stroke:#8f45e1;stroke-linecap:square;stroke-width:3"><path d="m115 163.5c0 0 5.246-10.298 19.562-10 14.07.104 20.438 10 20.438 10" id="J"/><path d="m274 158.01c0 0 5.246-10.298 19.562-10 14.07.104 22.847-16.731 22.847-16.731" id="K"/></g><g style="font-size:16;font-family:Helvetica Neue;fill:#9d60e1;font-weight:bold"><text id="L"><tspan x="19" y="98">Research</tspan></text><text id="M"><tspan x="174" y="98">Estimation</tspan></text><text id="N"><tspan x="329" y="58">Wireframing</tspan></text><text id="O"><tspan x="508" y="16">Design</tspan></text></g><path d="m435 115.01c0 0 3.255-13.203 17.57-12.905 14.07.104 26.428-4.287 26.428-4.287" id="B" style="stroke-dasharray:5 5 1;stroke:#8f45e1;stroke-linecap:square;stroke-width:3"/></g></svg>
