<svg viewBox="0 0 100 100" xmlns="http://www.w3.org/2000/svg"><g id="0" transform="translate(5 1)" style="fill:none;fill-rule:evenodd"><ellipse cx="44" cy="44.5" rx="9" ry="9.5" style="fill:#fff"/><g style="stroke:#fff"><path d="m46 91c-.197-.014-.847 0-1 0-25.08 0-45-20.371-45-45 0-25.629 19.923-46 45-46 24.08 0 44 20.371 44 46 0 10.611-3.895 20.792-10 29" style="stroke-width:2"/><path d="m73.73 81.75c.148.14.115.311-.076.383l-7.656 2.871 5 10-3 1-2 1-4-10-7.676 3.838c-.179.089-.324-.003-.324-.192v-27.29c0-.196.117-.242.268-.1l19.465 18.492" id="1"/></g></g></svg>