<?xml version="1.0" encoding="UTF-8" standalone="no"?>
<svg width="196px" height="196px" viewBox="0 0 196 196" version="1.1" xmlns="http://www.w3.org/2000/svg" xmlns:xlink="http://www.w3.org/1999/xlink" xmlns:sketch="http://www.bohemiancoding.com/sketch/ns">
    <!-- Generator: Sketch 3.5.2 (25235) - http://www.bohemiancoding.com/sketch -->
    <title>prototyping</title>
    <desc>Created with Sketch.</desc>
    <defs></defs>
    <g id="Welcome" stroke="none" stroke-width="1" fill="none" fill-rule="evenodd" sketch:type="MSPage">
        <g id="prototyping" sketch:type="MSArtboardGroup" transform="translate(-2.000000, -2.000000)">
            <g id="BG" sketch:type="MSLayerGroup" transform="translate(2.000000, 2.000000)">
                <path d="M98,196 C152.123905,196 196,152.123905 196,98 C196,43.8760945 152.123905,0 98,0 C43.8760945,0 0,43.8760945 0,98 C0,152.123905 43.8760945,196 98,196 Z" id="Oval-1" stroke="#FFFFFF" stroke-width="2" fill="#454DE1" sketch:type="MSShapeGroup"></path>
                <rect id="Rectangle-34-Copy-9" fill="#FFFFFF" sketch:type="MSShapeGroup" x="60" y="86" width="19" height="3" rx="2"></rect>
                <rect id="Rectangle-34-Copy-9" fill="#FFFFFF" sketch:type="MSShapeGroup" x="71" y="96" width="19" height="3" rx="2"></rect>
                <rect id="Rectangle-34-Copy-9" fill="#FFFFFF" sketch:type="MSShapeGroup" x="60" y="91" width="23" height="3" rx="2"></rect>
                <rect id="Rectangle-34-Copy-9" fill="#FFFFFF" sketch:type="MSShapeGroup" x="60" y="122" width="33" height="3" rx="2"></rect>
                <rect id="Rectangle-34-Copy-9" fill="#FFFFFF" sketch:type="MSShapeGroup" x="95" y="122" width="33" height="3" rx="2"></rect>
                <rect id="Rectangle-34-Copy-9" fill="#FFFFFF" sketch:type="MSShapeGroup" x="79" y="127" width="33" height="3" rx="2"></rect>
                <rect id="Rectangle-34-Copy-9" fill="#FFFFFF" sketch:type="MSShapeGroup" x="60" y="127" width="17" height="3" rx="2"></rect>
                <rect id="Rectangle-34-Copy-9" fill="#FFFFFF" sketch:type="MSShapeGroup" x="60" y="132" width="23" height="3" rx="2"></rect>
                <rect id="Rectangle-34-Copy-9" fill="#FFFFFF" sketch:type="MSShapeGroup" x="85" y="132" width="11" height="3" rx="2"></rect>
                <rect id="Rectangle-34-Copy-9" fill="#FFFFFF" sketch:type="MSShapeGroup" x="114" y="127" width="11" height="3" rx="2"></rect>
                <rect id="Rectangle-34-Copy-9" fill="#FFFFFF" sketch:type="MSShapeGroup" x="85" y="91" width="9" height="3" rx="2"></rect>
                <rect id="Rectangle-34-Copy-9" fill="#FFFFFF" sketch:type="MSShapeGroup" x="60" y="96" width="9" height="3" rx="2"></rect>
                <rect id="Rectangle-34-Copy-9" fill="#FFFFFF" sketch:type="MSShapeGroup" x="81" y="86" width="13" height="3" rx="2"></rect>
                <g id="Wireframe" transform="translate(44.000000, 44.000000)" sketch:type="MSShapeGroup">
                    <rect id="Rectangle-12" stroke="#FFFFFF" stroke-width="6" x="0" y="0" width="109" height="109" rx="1.89999998"></rect>
                    <rect id="Rectangle-13" fill="#FFFFFF" x="11" y="12" width="27" height="12" rx="1.89999998"></rect>
                    <rect id="Rectangle-16" stroke="#FFFFFF" stroke-width="4" x="11" y="37" width="44" height="23" rx="1.89999998"></rect>
                    <rect id="Rectangle-16" stroke="#FFFFFF" stroke-width="4" x="11" y="73" width="86" height="23" rx="1.89999998"></rect>
                    <rect id="Rectangle-16" stroke="#FFFFFF" stroke-width="4" x="65" y="37" width="31" height="24" rx="1.89999998"></rect>
                    <rect id="Rectangle-34-Copy-9" fill="#FFFFFF" x="70" y="42" width="8" height="3" rx="2"></rect>
                    <rect id="Rectangle-34-Copy-9" fill="#FFFFFF" x="80" y="42" width="12" height="3" rx="2"></rect>
                    <rect id="Rectangle-34-Copy-9" fill="#FFFFFF" x="70" y="47" width="13" height="3" rx="2"></rect>
                    <rect id="Rectangle-34-Copy-9" fill="#FFFFFF" x="85" y="47" width="7" height="3" rx="2"></rect>
                    <rect id="Rectangle-34-Copy-9" fill="#FFFFFF" x="70" y="52" width="13" height="3" rx="2"></rect>
                    <rect id="Rectangle-34-Copy-9" fill="#FFFFFF" x="48" y="15" width="13" height="7" rx="1.89999998"></rect>
                    <rect id="Rectangle-34-Copy-9" fill="#FFFFFF" x="65" y="15" width="13" height="7" rx="1.89999998"></rect>
                    <rect id="Rectangle-34-Copy-9" fill="#FFFFFF" x="82" y="15" width="13" height="7" rx="1.89999998"></rect>
                </g>
            </g>
        </g>
    </g>
</svg>