<?xml version="1.0" encoding="UTF-8" standalone="no"?>
<svg width="200px" height="199px" viewBox="0 0 200 199" version="1.1" xmlns="http://www.w3.org/2000/svg" xmlns:xlink="http://www.w3.org/1999/xlink" xmlns:sketch="http://www.bohemiancoding.com/sketch/ns">
    <!-- Generator: Sketch 3.5.2 (25235) - http://www.bohemiancoding.com/sketch -->
    <title>prototyping</title>
    <desc>Created with Sketch.</desc>
    <defs>
        <path id="path-1" d="M100,200 C155.228475,200 200,155.228475 200,100 C200,44.771525 155.228475,0 100,0 C44.771525,0 0,44.771525 0,100 C0,155.228475 44.771525,200 100,200 Z"></path>
    </defs>
    <g id="Welcome" stroke="none" stroke-width="1" fill="none" fill-rule="evenodd" sketch:type="MSPage">
        <g id="prototyping" sketch:type="MSArtboardGroup" transform="translate(0.000000, -1.000000)">
            <g sketch:type="MSLayerGroup" transform="translate(0.000000, 1.000000)">
                <g id="BG" fill="#454DE1" sketch:type="MSShapeGroup">
                    <path d="M100,200 C155.228475,200 200,155.228475 200,100 C200,44.771525 155.228475,0 100,0 C44.771525,0 0,44.771525 0,100 C0,155.228475 44.771525,200 100,200 Z" id="Oval-1"></path>
                </g>
                <g id="Wireframe">
                    <g>
                        <mask id="mask-2" sketch:name="Mask" fill="white">
                            <use xlink:href="#path-1"></use>
                        </mask>
                        <use id="Mask" stroke="#FFFFFF" stroke-width="2" fill="#454DE1" sketch:type="MSShapeGroup" xlink:href="#path-1"></use>
                        <path d="M169.420768,28.0005882 C151.3477,10.0738993 126.467074,-1 99,-1 C43.771525,-1 -1,43.771525 -1,99 C-1,126.467074 10.0738993,151.3477 28.0005882,169.420768 L169.420768,28.0005882 Z" id="Oval-1" fill-opacity="0.100000001" fill="#FFFFFF" sketch:type="MSShapeGroup" mask="url(#mask-2)"></path>
                        <g mask="url(#mask-2)" sketch:type="MSShapeGroup">
                            <g transform="translate(39.000000, 39.000000)">
                                <rect id="Rectangle-12" stroke="#FFFFFF" stroke-width="6" fill="none" x="0" y="0" width="180" height="180" rx="8"></rect>
                                <rect id="Rectangle-13" stroke="none" fill="#FFFFFF" fill-rule="evenodd" x="16" y="18" width="50" height="22" rx="8"></rect>
                                <rect id="Rectangle-13" stroke="none" fill="#FFFFFF" fill-rule="evenodd" x="80" y="24" width="25" height="11" rx="8"></rect>
                                <rect id="Rectangle-13" stroke="none" fill="#FFFFFF" fill-rule="evenodd" x="112" y="24" width="25" height="11" rx="8"></rect>
                                <rect id="Rectangle-13" stroke="none" fill="#FFFFFF" fill-rule="evenodd" x="145" y="24" width="25" height="11" rx="8"></rect>
                                <rect id="Rectangle-16" stroke="#FFFFFF" stroke-width="6" fill="none" x="16" y="52" width="170" height="50" rx="8"></rect>
                                <rect id="Rectangle-34-Copy-9" stroke="none" fill="#FFFFFF" fill-rule="evenodd" x="27" y="63" width="54" height="6" rx="8"></rect>
                                <rect id="Rectangle-34-Copy-9" stroke="none" fill="#FFFFFF" fill-rule="evenodd" x="27" y="74" width="35" height="6" rx="8"></rect>
                                <rect id="Rectangle-34-Copy-9" stroke="none" fill="#FFFFFF" fill-rule="evenodd" x="67" y="74" width="35" height="6" rx="8"></rect>
                                <rect id="Rectangle-34-Copy-9" stroke="none" fill="#FFFFFF" fill-rule="evenodd" x="102" y="85" width="35" height="6" rx="8"></rect>
                                <rect id="Rectangle-34-Copy-9" stroke="none" fill="#FFFFFF" fill-rule="evenodd" x="86" y="63" width="54" height="6" rx="8"></rect>
                                <rect id="Rectangle-34-Copy-9" stroke="none" fill="#FFFFFF" fill-rule="evenodd" x="27" y="85" width="70" height="6" rx="8"></rect>
                                <rect id="Rectangle-16" stroke="#FFFFFF" stroke-width="6" fill="none" x="16" y="114" width="170" height="50" rx="8"></rect>
                                <rect id="Rectangle-34-Copy-9" stroke="none" fill="#FFFFFF" fill-rule="evenodd" x="27" y="125" width="54" height="6" rx="8"></rect>
                                <rect id="Rectangle-34-Copy-9" stroke="none" fill="#FFFFFF" fill-rule="evenodd" x="27" y="136" width="35" height="6" rx="8"></rect>
                                <rect id="Rectangle-34-Copy-9" stroke="none" fill="#FFFFFF" fill-rule="evenodd" x="67" y="136" width="35" height="6" rx="8"></rect>
                                <rect id="Rectangle-34-Copy-9" stroke="none" fill="#FFFFFF" fill-rule="evenodd" x="102" y="147" width="35" height="6" rx="8"></rect>
                                <rect id="Rectangle-34-Copy-9" stroke="none" fill="#FFFFFF" fill-rule="evenodd" x="86" y="125" width="54" height="6" rx="8"></rect>
                                <rect id="Rectangle-34-Copy-9" stroke="none" fill="#FFFFFF" fill-rule="evenodd" x="27" y="147" width="70" height="6" rx="8"></rect>
                            </g>
                        </g>
                    </g>
                </g>
            </g>
        </g>
    </g>
</svg>