<svg viewBox="0 0 200 200" xmlns="http://www.w3.org/2000/svg"><g id="0" style="fill:none;fill-rule:evenodd"><g id="1"><path d="m100 200c55.23 0 100-44.772 100-100 0-55.23-44.772-100-100-100-55.23 0-100 44.772-100 100 0 55.23 44.772 100 100 100" style="fill:#454de1;stroke:#fff;stroke-width:2"/><path d="m170.42 29c-18.07-17.927-42.954-29-70.42-29-55.23 0-100 44.772-100 100 0 27.467 11.07 52.35 29 70.42l141.42-141.42" style="fill:#fff;fill-opacity:.1"/></g><g id="2" transform="translate(40 40)" style="fill:#fff"><path d="m79 77c3.326 0 6 2.68 6 6 0 3.313-2.674 6-6 6-3.316 0-6-2.687-6-6 0-3.32 2.684-6 6-6" id="3"/><path d="m54 89c3.313 0 6 2.685 6 6 0 3.308-2.687 6-6 6-3.32 0-6-2.692-6-6 0-3.315 2.68-6 6-6" id="4"/><path d="m42 64c3.32 0 6 2.68 6 6 0 3.31-2.68 6-6 6-3.323 0-6-2.69-6-6 0-3.32 2.677-6 6-6" id="5"/><path d="m120 115l-34-71v-37h6c2.294.012 3.859-1.558 4-3-.141-2.43-1.706-4-4-4h-9c-.541 0-.722.084-1 0-.125.084-.306 0-1 0h-53c-2.144 0-3.709 1.57-4 4 .291 1.442 1.856 3.01 4 3h6v37l-34 71c-.177 1.076-.099 2.35 1 3 .182 1.384 1.3 2 2 2h114c.7 0 1.814-.616 2-2 1.098-.643 1.177-1.917 1-3m-41-73h-38v-35h38v35m-70 71l30-64h42l30 64h-102" id="6"/></g></g></svg>