<svg viewBox="0 0 100 100" xmlns="http://www.w3.org/2000/svg"><g id="0" transform="matrix(.96593.25882-.25882.96593 36.882-6)" style="fill:none;fill-rule:evenodd"><path d="m24.584 1.327l-14.305 18.937c-.142.204-.217.453-.211.701l.036 27.879-9.267 9.223c-.182.213-.284.492-.282.771l.036 18.902c-.02.928 1.336 1.52 2.01.877l9.196-9.153c10.137.012 17.494-.111 27.554-.07l9.161 9.118c.656.682 2.064.103 2.044-.842v-18.937c-.018-.305-.16-.601-.388-.807l-9.126-9.08-.036-27.949c.006-.248-.069-.497-.211-.701l-14.306-18.867c-.44-.587-1.463-.587-1.903 0m1.481 4.335l12.511 16.443c0 0 .045 17.565.068 26.348 0 .094-.013.126-.033.167-2.889 5.681-8.666 17.04-8.666 17.04h-7.621c0 0-5.756-11.251-8.633-16.876-.085-.165-.135-.348-.135-.534 0-8.694 0-26.08 0-26.08l12.51-16.509m-15.548 45.42l8.02 16.05-7.701.035c-.313 0-.624.131-.844.357l-7.455 7.56v-15.834l7.982-8.166m29.993.226l8.089 8.119v15.881l-7.555-7.583c-.223-.226-.538-.358-.855-.358l-7.59.036 7.911-16.1" id="1" style="fill:#fff"/><path d="m25.515 99.29c0 0 5-5.149 5-11.5 0-6.351-2.239-11.5-5-11.5-2.761 0-5 5.149-5 11.5 0 6.351 5 11.5 5 11.5" style="stroke:#fff;stroke-width:2.4"/></g></svg>