<?xml version="1.0" encoding="UTF-8" standalone="no"?>
<svg width="200px" height="200px" viewBox="0 0 200 200" version="1.1" xmlns="http://www.w3.org/2000/svg" xmlns:xlink="http://www.w3.org/1999/xlink" xmlns:sketch="http://www.bohemiancoding.com/sketch/ns">
    <!-- Generator: Sketch 3.5.2 (25235) - http://www.bohemiancoding.com/sketch -->
    <title>strategy</title>
    <desc>Created with Sketch.</desc>
    <defs></defs>
    <g id="Welcome" stroke="none" stroke-width="1" fill="none" fill-rule="evenodd" sketch:type="MSPage">
        <g id="strategy" sketch:type="MSArtboardGroup">
            <g sketch:type="MSLayerGroup" transform="translate(2.000000, 2.000000)">
                <g id="BG" sketch:type="MSShapeGroup">
                    <path d="M98,196 C152.123905,196 196,152.123905 196,98 C196,43.8760945 152.123905,0 98,0 C43.8760945,0 0,43.8760945 0,98 C0,152.123905 43.8760945,196 98,196 Z" id="Oval-1" stroke="#FFFFFF" stroke-width="2" fill="#454DE1"></path>
                    <path d="M167.012353,28.4205764 C149.300746,10.8524214 124.917732,0 98,0 C43.8760945,0 0,43.8760945 0,98 C0,124.917732 10.8524214,149.300746 28.4205764,167.012353 L167.012353,28.4205764 Z" id="Oval-1" fill-opacity="0.100000001" fill="#FFFFFF"></path>
                </g>
                <g id="icon" transform="translate(34.300000, 44.100000)" stroke="#FFFFFF" stroke-width="6" sketch:type="MSShapeGroup">
                    <rect id="Rectangle-126" x="49" y="0" width="29.4" height="29.4" rx="3"></rect>
                    <rect id="Rectangle-126" x="49" y="68.6" width="29.4" height="29.4" rx="3"></rect>
                    <rect id="Rectangle-126" x="98" y="68.6" width="29.4" height="29.4" rx="3"></rect>
                    <rect id="Rectangle-126" x="0" y="68.6" width="29.4" height="29.4" rx="3"></rect>
                    <path d="M63.7,29.4 L63.7,49.98" id="Line" stroke-linecap="square"></path>
                    <path d="M16.66,49.49 L16.66,68.1344847" id="Line" stroke-linecap="square"></path>
                    <path d="M63.7,49.49 L63.7,68.1344847" id="Line" stroke-linecap="square"></path>
                    <path d="M114.66,49.49 L114.66,68.1344847" id="Line" stroke-linecap="square"></path>
                    <path d="M17.15,49 L114.17,49" id="Line" stroke-linecap="square"></path>
                </g>
            </g>
        </g>
    </g>
</svg>