<svg viewBox="0 0 200 200" xmlns="http://www.w3.org/2000/svg"><g id="0" style="fill:none;fill-rule:evenodd"><g id="1"><path d="m100 200c55.23 0 100-44.772 100-100 0-55.23-44.772-100-100-100-55.23 0-100 44.772-100 100 0 55.23 44.772 100 100 100" style="fill:#454de1;stroke:#fff;stroke-width:2"/><path d="m170.42 29c-18.07-17.927-42.954-29-70.42-29-55.23 0-100 44.772-100 100 0 27.467 11.07 52.35 29 70.42l141.42-141.42" style="fill:#fff;fill-opacity:.1"/></g><g id="2" transform="translate(35 45)" style="stroke:#fff;stroke-width:6"><rect x="50" width="30" height="30" rx="3"/><rect x="50" y="70" width="30" height="30" rx="3"/><rect x="100" y="70" width="30" height="30" rx="3"/><rect y="70" width="30" height="30" rx="3"/><g style="stroke-linecap:square"><path d="m65 28v23" id="3"/><path d="m17 50.5v20.02" id="4"/><path d="m65 50.5v20.02" id="5"/><path d="m117 50.5v20.02" id="6"/><path d="m17.5 50h99" id="7"/></g></g></g></svg>