<svg xmlns="http://www.w3.org/2000/svg" viewBox="0 0 16 16"><path fill="#444" d="m15.25 12h-.25v-3.25c0-.965-.785-1.75-1.75-1.75h-4.25v-2h.25c.412 0 .75-.338.75-.75v-2.5c0-.413-.338-.75-.75-.75h-2.5c-.412 0-.75.337-.75.75v2.5c0 .412.338.75.75.75h.25v2h-4.25c-.965 0-1.75.785-1.75 1.75v3.25h-.25c-.412 0-.75.338-.75.75v2.5c0 .412.338.75.75.75h2.5c.413 0 .75-.338.75-.75v-2.5c0-.412-.337-.75-.75-.75h-.25v-3h4v3h-.25c-.412 0-.75.338-.75.75v2.5c0 .412.338.75.75.75h2.5c.412 0 .75-.338.75-.75v-2.5c0-.412-.338-.75-.75-.75h-.25v-3h4v3h-.25c-.412 0-.75.338-.75.75v2.5c0 .412.338.75.75.75h2.5c.412 0 .75-.338.75-.75v-2.5c0-.412-.338-.75-.75-.75m-12.25 3h-2v-2h2v2m6 0h-2v-2h2v2m-2-11v-2h2v2h-2m8 11h-2v-2h2v2"/></svg>