<?xml version="1.0" encoding="UTF-8" standalone="no"?>
<svg width="200px" height="200px" viewBox="0 0 200 200" version="1.1" xmlns="http://www.w3.org/2000/svg" xmlns:xlink="http://www.w3.org/1999/xlink" xmlns:sketch="http://www.bohemiancoding.com/sketch/ns">
    <!-- Generator: Sketch 3.5.2 (25235) - http://www.bohemiancoding.com/sketch -->
    <title>ui</title>
    <desc>Created with Sketch.</desc>
    <defs></defs>
    <g id="Welcome" stroke="none" stroke-width="1" fill="none" fill-rule="evenodd" sketch:type="MSPage">
        <g id="ui" sketch:type="MSArtboardGroup">
            <g id="Design" sketch:type="MSLayerGroup">
                <g id="BG" sketch:type="MSShapeGroup">
                    <path d="M100,200 C155.228475,200 200,155.228475 200,100 C200,44.771525 155.228475,0 100,0 C44.771525,0 0,44.771525 0,100 C0,155.228475 44.771525,200 100,200 Z" id="Oval-1" stroke="#FFFFFF" stroke-width="2" fill="#454DE1"></path>
                    <path d="M170.420768,29.0005882 C152.3477,11.0738993 127.467074,0 100,0 C44.771525,0 0,44.771525 0,100 C0,127.467074 11.0738993,152.3477 29.0005882,170.420768 L170.420768,29.0005882 Z" id="Oval-1" fill-opacity="0.100000001" fill="#FFFFFF"></path>
                </g>
                <path d="M100,45 C99.4195787,45.0201385 98.9671477,45.1359629 99,45 L47,71 C44.4070255,72.4189972 44.4070255,75.8180205 47,77 L67,87 L47,97 C44.4037902,98.2981372 44.4037902,101.701431 47,103 L67,113 L47,123 C44.4037902,124.180797 44.4037902,127.584091 47,129 L99,155 C99.4644853,155.113657 100.535515,155.113657 101,155 L153,129 C155.59621,127.584091 155.59621,124.180797 153,123 L133,113 L153,103 C155.59621,101.701431 155.59621,98.2981372 153,97 L133,87 L153,77 C155.592974,75.8180205 155.592974,72.4189972 153,71 L101,45 C100.961157,45.1001155 100.423054,44.9828677 100,45 L100,45 Z M100,52 L144,75 L100,97 L55,75 L100,52 Z M74,91 L98,103 C98.9648651,103.83745 100.035135,103.83745 101,103 L125,91 L144,100 L99,123 L55,100 L74,91 Z M74,117 L98,129 C98.9648651,129.837597 100.035135,129.837597 101,129 L125,117 L144,126 L100,149 L55,126 L74,117 Z" id="icn" fill="#FFFFFF" sketch:type="MSShapeGroup"></path>
            </g>
        </g>
    </g>
</svg>