<svg viewBox="0 0 200 200" xmlns="http://www.w3.org/2000/svg"><g id="0" style="fill:none;fill-rule:evenodd"><g id="1"><path d="m100 200c55.23 0 100-44.772 100-100 0-55.23-44.772-100-100-100-55.23 0-100 44.772-100 100 0 55.23 44.772 100 100 100" style="fill:#454de1;stroke:#fff;stroke-width:2"/><path d="m170.42 29c-18.07-17.927-42.954-29-70.42-29-55.23 0-100 44.772-100 100 0 27.467 11.07 52.35 29 70.42l141.42-141.42" style="fill:#fff;fill-opacity:.1"/></g><g id="2" transform="translate(42 42)"><circle cx="58" cy="58" r="12" style="fill:#fff"/><g style="stroke:#fff"><path d="m61 116c-1.302-.018-2.149 0-3 0-32.03 0-58-25.967-58-58 0-32.03 25.967-58 58-58 32.03 0 58 25.967 58 58 0 14.164-5.077 27.14-14 37" style="stroke-width:7"/><path d="m98.26 107.32c.407.375.319.846-.187 1.049l-9.08 3.631 6 12-3 2-4 1-5-12-9.08 3.631c-.51.204-.923-.073-.923-.641v-32.981c0-.558.329-.706.736-.33l24.528 22.641" id="3" style="stroke-width:6"/></g></g></g></svg>